<svg width="86" height="20" viewBox="0 0 86 20" fill="none" xmlns="http://www.w3.org/2000/svg">
<path d="M82.3852 7.67356C82.1936 7.73104 82.0304 7.77661 81.8271 7.81166C82.0428 7.84952 82.2118 7.89298 82.3874 7.94837L82.9944 8.14045L82.99 7.47937L82.3852 7.67356Z" fill="#C1D4EB"/>
<path d="M78.24 4.43616V15.3724H85.9993V4.43616H78.24ZM80.0732 7.71633L84.0057 6.22311C84.0757 6.19437 84.1456 6.23923 84.1463 6.32336L84.1507 6.99005C84.1507 7.03492 84.1223 7.08539 84.0815 7.09661H84.0873L83.6866 7.25014L83.6946 8.35988L84.0975 8.49729H84.0917C84.1325 8.5085 84.1617 8.55828 84.1624 8.60875L84.1668 9.26983C84.1675 9.36518 84.0975 9.40443 84.0276 9.37709C82.7488 8.9088 81.3535 8.40265 80.0747 7.93435C79.9873 7.8965 79.9865 7.75629 80.0732 7.71633ZM82.88 13.5202L80.2999 13.5371C80.2474 13.5378 80.1949 13.4873 80.1942 13.42L80.1898 12.8094C80.1891 12.7421 80.2416 12.6916 80.294 12.6909L82.8625 12.6741C83.2057 12.6215 83.4075 12.3397 83.4053 12.0263C83.4031 11.7067 83.2261 11.3884 82.8654 11.3912L80.2853 11.408C80.2328 11.4087 80.1804 11.3582 80.1796 11.2909L80.1753 10.6747C80.1745 10.613 80.227 10.5626 80.2795 10.5619L82.8596 10.545C83.7274 10.5394 84.2382 11.1802 84.244 12.0207C84.2498 12.8444 83.7245 13.5146 82.88 13.5202Z" fill="#C1D4EB"/>
<path d="M57.0285 7.71497C57.0205 9.07218 57.0125 10.428 57.0045 11.7852C56.995 11.7985 56.9855 11.8119 56.976 11.8245C56.8697 11.9703 56.7327 12.0951 56.5767 12.189C56.4215 12.2837 56.2467 12.346 56.0674 12.3902C55.9057 12.4295 55.7395 12.4547 55.5727 12.4743C55.4058 12.4947 55.2375 12.5122 55.0714 12.5108C54.9184 12.5094 54.7675 12.4926 54.6196 12.461C54.471 12.4288 54.3252 12.3818 54.1861 12.3194C54.0433 12.2542 53.9077 12.175 53.7824 12.0818C53.6564 11.9885 53.539 11.8841 53.4356 11.7698C53.3204 11.6443 53.2192 11.5048 53.1354 11.3569C53.0516 11.209 52.9838 11.0519 52.9306 10.8921C52.8075 10.5205 52.7609 10.1308 52.7609 9.74028C52.7609 9.54609 52.7725 9.3505 52.8002 9.15911C52.8272 8.96633 52.8694 8.77634 52.9314 8.59127C52.9838 8.43143 53.0516 8.2758 53.1361 8.12928C53.2199 7.98347 53.3219 7.84676 53.437 7.72198C53.6469 7.49624 53.9026 7.30836 54.1883 7.18007C54.3267 7.11908 54.4724 7.07141 54.6211 7.04057C54.7697 7.00972 54.9227 6.9943 55.075 6.9936C55.2411 6.99219 55.408 7.00762 55.5741 7.02795C55.7403 7.04758 55.9064 7.07211 56.0674 7.11207C56.2489 7.15554 56.4245 7.22003 56.5833 7.31327C56.7414 7.40791 56.882 7.53059 56.9964 7.67361C57.0066 7.68833 57.0176 7.70165 57.0285 7.71497ZM61.0236 15.1663C61.0164 10.1469 61.0091 5.12742 61.0011 0.107971C59.6684 0.107971 58.3364 0.107971 57.0052 0.107971C57.0132 2.03233 57.0219 3.95879 57.03 5.88315C56.9331 5.74013 56.8354 5.59782 56.737 5.45551C56.611 5.27044 56.4682 5.09588 56.3057 4.93884C56.1534 4.79163 55.9836 4.65913 55.8015 4.55047C55.6171 4.4404 55.4182 4.35277 55.2135 4.28057C55.0014 4.20626 54.7843 4.14877 54.5635 4.10881C54.3318 4.06675 54.0972 4.04221 53.8611 4.0331C53.6068 4.02188 53.3518 4.02609 53.0982 4.04992C52.6086 4.0976 52.1255 4.22168 51.6766 4.41657C51.2336 4.61006 50.8241 4.87225 50.4635 5.18842C50.2769 5.35176 50.1042 5.53052 49.9468 5.7198C49.7851 5.91539 49.6408 6.12501 49.5126 6.34303C49.2284 6.82184 49.02 7.34342 48.8838 7.87901C48.7293 8.49102 48.6673 9.12196 48.6666 9.75219C48.6652 10.4 48.7278 11.0484 48.891 11.6758C48.9639 11.957 49.0579 12.2339 49.1694 12.5038C49.2729 12.7526 49.3916 12.9959 49.5308 13.2273C49.6598 13.4439 49.8069 13.6514 49.9709 13.847C50.1268 14.0327 50.2988 14.2073 50.4853 14.3678C50.8438 14.6763 51.2555 14.9287 51.6978 15.111C52.1452 15.296 52.6231 15.4103 53.107 15.4573C53.3569 15.4804 53.6083 15.486 53.8589 15.4741C54.0928 15.4636 54.3267 15.4411 54.5562 15.3984C54.7726 15.3598 54.9847 15.3037 55.1923 15.2308C55.3927 15.1607 55.5887 15.0731 55.7694 14.9665C56.1556 14.7366 56.4769 14.4155 56.74 14.058C56.8383 13.9241 56.9381 13.7895 57.0372 13.6542C57.0263 14.1603 57.0168 14.6637 57.0059 15.1684C58.3473 15.1663 59.6851 15.1663 61.0236 15.1663Z" fill="#C1D4EB"/>
<path d="M28.5824 9.91271C28.5824 10.2632 28.5095 10.6138 28.3674 10.9369C28.2312 11.2482 28.0301 11.5335 27.7816 11.7726C27.5317 12.013 27.2351 12.2051 26.9123 12.3376C26.5764 12.4736 26.2121 12.5444 25.8478 12.5444C25.4835 12.5444 25.1199 12.4729 24.7847 12.3376C24.4605 12.2051 24.1639 12.013 23.9147 11.7726C23.6662 11.5335 23.4651 11.2482 23.3282 10.9369C23.1861 10.6145 23.1125 10.2632 23.1125 9.91271C23.1125 9.56359 23.1853 9.21307 23.3282 8.89059C23.4651 8.57863 23.6662 8.29261 23.9147 8.05355C24.1639 7.8138 24.4605 7.62101 24.7847 7.48921C25.1199 7.35321 25.4835 7.28171 25.8478 7.28171C26.2121 7.28171 26.5764 7.35251 26.9123 7.48921C27.2359 7.62101 27.5324 7.8138 27.7816 8.05355C28.0301 8.29261 28.2312 8.57863 28.3674 8.89059C28.5095 9.21307 28.5824 9.56359 28.5824 9.91271ZM28.5525 4.9879C28.4767 4.95355 28.4017 4.9192 28.3259 4.88415C27.9463 4.71029 27.5484 4.57709 27.1382 4.48736C26.7163 4.39482 26.2828 4.34855 25.8485 4.34925C25.0776 4.34995 24.3067 4.49787 23.5963 4.7867C22.9114 5.06431 22.2847 5.47302 21.7579 5.97777C21.2319 6.48462 20.8085 7.08892 20.5192 7.7465C20.219 8.43001 20.0646 9.17171 20.0646 9.91341C20.0646 10.6551 20.219 11.3975 20.5192 12.081C20.8085 12.74 21.2319 13.3422 21.7579 13.8498C22.284 14.3559 22.9114 14.7646 23.5963 15.0422C24.3067 15.3304 25.0776 15.4783 25.8485 15.479C26.2828 15.479 26.7163 15.432 27.1382 15.3395C27.5484 15.2511 27.947 15.1165 28.3259 14.9434C28.4017 14.909 28.4767 14.8747 28.5525 14.8403C28.5525 15.0527 28.5525 15.2659 28.5525 15.4783C29.5792 15.4783 30.6051 15.4783 31.631 15.4783C31.631 11.7691 31.631 8.05846 31.631 4.35065C30.6044 4.35065 29.5784 4.35065 28.5525 4.35065C28.5525 4.48245 28.5525 4.61495 28.5525 4.74744C28.5525 4.82736 28.5525 4.90728 28.5525 4.9879Z" fill="#C1D4EB"/>
<path d="M17.6877 3.19393C17.5799 3.43298 17.4283 3.65451 17.2367 3.83958C17.0458 4.02466 16.8148 4.17258 16.5649 4.27423C16.3041 4.38009 16.0206 4.43547 15.7386 4.43547C15.4545 4.43547 15.1717 4.38079 14.9102 4.27423C14.6595 4.17188 14.43 4.02326 14.2376 3.83818C14.0467 3.65381 13.8923 3.43368 13.7866 3.19393C13.6758 2.94295 13.6183 2.66955 13.6183 2.39754C13.619 2.12414 13.6758 1.85143 13.7866 1.60046C13.8923 1.36 14.0467 1.13988 14.2384 0.954801C14.43 0.769726 14.6602 0.621106 14.9102 0.519455C15.171 0.413598 15.4545 0.358215 15.7379 0.358215C16.0206 0.358215 16.3048 0.413598 16.5656 0.520857C16.8156 0.621807 17.0451 0.769726 17.236 0.954801C17.4283 1.13988 17.5821 1.3607 17.6885 1.60116C17.7978 1.85213 17.8553 2.12484 17.8561 2.39824C17.8568 2.67025 17.8 2.94365 17.6877 3.19393Z" fill="#C1D4EB"/>
<path d="M17.7359 4.87994C17.5661 4.9823 17.3876 5.07343 17.2025 5.14844C16.7413 5.33772 16.2392 5.43307 15.7379 5.43307C15.2359 5.43307 14.7346 5.33772 14.2734 5.14984C14.089 5.07343 13.909 4.9823 13.7393 4.87994C13.7393 8.31224 13.7393 11.7445 13.7393 15.1775C15.0712 15.1775 16.4039 15.1775 17.7359 15.1775C17.7359 11.7452 17.7359 8.31224 17.7359 4.87994Z" fill="#C1D4EB"/>
<path d="M42.3486 9.80686C42.3486 8.39006 42.0666 7.80049 41.6156 7.47941C41.1631 7.15763 40.5415 7.10716 39.9871 7.24176C39.4318 7.37636 38.9436 7.69603 38.5735 8.13208C38.5596 8.1461 38.548 8.16012 38.5356 8.17414C38.5356 10.5093 38.5356 12.8431 38.5356 15.1775C37.2036 15.1775 35.8717 15.1775 34.5405 15.1775C34.5405 11.5679 34.5405 7.95892 34.5405 4.34856C35.8717 4.34856 37.2036 4.34856 38.5356 4.34856C38.5356 4.84069 38.5356 5.33282 38.5356 5.82425C39.5258 4.71871 40.4541 4.26023 41.5296 4.07936C42.6051 3.89779 43.8277 3.99594 44.7626 4.59813C45.6981 5.19962 46.3452 6.30797 46.3452 8.27369C46.3452 9.65053 46.3452 11.0274 46.3452 12.4021C46.3452 13.1796 46.3525 14.1056 46.367 15.1775C45.0278 15.1775 43.6878 15.1775 42.3486 15.1775C42.3486 13.3871 42.3486 11.5973 42.3486 9.80686Z" fill="#C1D4EB"/>
<path d="M11.9206 2.79505H7.95821V15.1782H3.96235V2.79505H0V0H11.9206V2.79505Z" fill="#C1D4EB"/>
<path d="M67.2164 15.8519C67.2776 15.725 67.3184 15.5946 67.3388 15.4593C65.8487 11.7564 64.3601 8.05284 62.87 4.34924C64.2712 4.34924 65.6724 4.34924 67.0736 4.34924C67.8466 6.82462 68.6205 9.3 69.3935 11.7754C70.1754 9.3 70.9579 6.82462 71.7405 4.34924C73.1409 4.34924 74.5421 4.34924 75.9433 4.34924C74.2944 8.45174 72.6455 12.5549 70.9966 16.6581C70.8472 17.0402 70.6796 17.4159 70.4719 17.7728C70.3058 18.0609 70.112 18.335 69.8883 18.5811C69.6967 18.7921 69.4803 18.9807 69.2449 19.1482C69.0256 19.306 68.7888 19.4427 68.5396 19.5506C68.0237 19.7728 67.459 19.8584 66.8943 19.9018C66.272 19.9509 65.6483 19.9481 65.0246 19.9495C65.0246 18.8061 65.0246 17.6613 65.0246 16.5193C65.5798 16.5144 66.0316 16.4829 66.3675 16.4261C66.7617 16.3567 67.0685 16.1541 67.2164 15.8519Z" fill="#C1D4EB"/>
<path d="M3.95505 19.9495V16.9911H4.57585V18.1556H5.79195V16.9911H6.41275V19.9495H5.79195V18.6561H4.57585V19.9495H3.95505Z" fill="#C1D4EB"/>
<path d="M7.44888 18.4886C7.44888 18.1871 7.49552 17.934 7.58951 17.73C7.65946 17.5793 7.75491 17.444 7.87587 17.3241C7.99682 17.2043 8.12943 17.1159 8.2737 17.0577C8.46534 16.9799 8.68611 16.9407 8.93677 16.9407C9.38998 16.9407 9.75212 17.076 10.0239 17.3466C10.2957 17.6172 10.4319 17.9929 10.4319 18.4746C10.4319 18.952 10.2971 19.3256 10.0275 19.5955C9.75794 19.8654 9.39654 20 8.94551 20C8.48792 20 8.12506 19.8661 7.85474 19.5976C7.58368 19.3291 7.44888 18.9597 7.44888 18.4886ZM8.08863 18.4689C8.08863 18.804 8.16878 19.0578 8.32981 19.231C8.49084 19.4041 8.69486 19.4904 8.9426 19.4904C9.19033 19.4904 9.3929 19.4048 9.55174 19.2331C9.71058 19.0613 9.79001 18.804 9.79001 18.4612C9.79001 18.1219 9.71277 17.8696 9.5583 17.7027C9.40383 17.5359 9.19835 17.4524 8.9426 17.4524C8.68684 17.4524 8.48064 17.5373 8.32398 17.7055C8.16659 17.8738 8.08863 18.1282 8.08863 18.4689Z" fill="#C1D4EB"/>
<path d="M11.4375 16.9911H12.6667C12.91 16.9911 13.0915 17.001 13.211 17.0206C13.3305 17.0402 13.4376 17.0809 13.5316 17.1426C13.6256 17.2043 13.705 17.287 13.7677 17.39C13.8303 17.4931 13.8617 17.6081 13.8617 17.7364C13.8617 17.8752 13.823 18.0021 13.7451 18.1177C13.6671 18.2334 13.5622 18.3203 13.4296 18.3778C13.6168 18.4304 13.7611 18.5194 13.8617 18.6463C13.9622 18.7725 14.0125 18.9211 14.0125 19.0922C14.0125 19.2268 13.9797 19.3579 13.9148 19.4848C13.85 19.6116 13.7611 19.7133 13.6482 19.7897C13.536 19.8654 13.3968 19.9124 13.2321 19.9299C13.1286 19.9404 12.8787 19.9474 12.4831 19.9502H11.4367V16.9911H11.4375ZM12.0583 17.484V18.1682H12.4648C12.7068 18.1682 12.8569 18.1647 12.9159 18.1584C13.0223 18.1465 13.1061 18.1107 13.1665 18.0525C13.227 17.9943 13.2576 17.9172 13.2576 17.8212C13.2576 17.73 13.2314 17.655 13.1789 17.5983C13.1265 17.5408 13.0485 17.5064 12.945 17.4945C12.8838 17.4875 12.7068 17.4847 12.4146 17.4847H12.0583V17.484ZM12.0583 18.6603V19.4511H12.6332C12.8569 19.4511 12.9989 19.4448 13.0587 19.4329C13.1512 19.4168 13.2263 19.3775 13.2838 19.3151C13.3421 19.2527 13.3705 19.1686 13.3705 19.0641C13.3705 18.9751 13.348 18.9001 13.3035 18.8384C13.2591 18.7767 13.1942 18.7311 13.1097 18.7031C13.0252 18.6751 12.8416 18.661 12.5588 18.661H12.0583V18.6603Z" fill="#C1D4EB"/>
<path d="M15.0573 19.9495V16.9911H17.3373V17.4917H15.6781V18.1472H17.2221V18.6456H15.6781V19.4511H17.3956V19.9495H15.0573V19.9495Z" fill="#C1D4EB"/>
<path d="M20.1673 16.9911H22.4662V17.4875H20.7881V18.1738H21.6188C21.8483 18.1738 22.0384 18.2004 22.1893 18.2544C22.3401 18.3084 22.4691 18.408 22.5762 18.5531C22.6833 18.6982 22.7365 18.8685 22.7365 19.0634C22.7365 19.2639 22.6826 19.4357 22.5747 19.578C22.4669 19.721 22.3445 19.8184 22.2068 19.8703C22.069 19.9229 21.873 19.9488 21.6188 19.9488H20.1673V16.9911V16.9911ZM20.7881 19.4532H21.3921C21.5852 19.4532 21.7208 19.4441 21.7987 19.4259C21.8767 19.4076 21.9452 19.3663 22.0035 19.3018C22.0618 19.2373 22.0902 19.1581 22.0902 19.0634C22.0902 18.926 22.0392 18.8265 21.9379 18.7641C21.8366 18.7017 21.6632 18.6701 21.4191 18.6701H20.7881V19.4532Z" fill="#C1D4EB"/>
<path d="M26.371 19.9495H25.6955L25.4274 19.2779H24.1981L23.9446 19.9495H23.2859L24.4838 16.9911H25.1403L26.371 19.9495ZM25.2277 18.7795L24.8044 17.6817L24.3891 18.7795H25.2277Z" fill="#C1D4EB"/>
<path d="M26.8424 16.9911H27.4632V17.6971C27.4632 17.9256 27.4719 18.0778 27.4894 18.1521C27.5069 18.2271 27.5586 18.2916 27.6453 18.347C27.732 18.4023 27.8596 18.4297 28.0271 18.4297C28.1598 18.4297 28.2778 18.4157 28.3813 18.3883C28.4847 18.361 28.5744 18.3203 28.6494 18.2663V16.9911H29.2702V19.9495H28.6494V18.7592C28.5233 18.8132 28.3995 18.8538 28.2785 18.8812C28.1568 18.9085 28.0373 18.9225 27.92 18.9225C27.614 18.9225 27.3575 18.8531 27.1513 18.7136C26.9451 18.5741 26.8416 18.3329 26.8416 17.9901V16.9911H26.8424Z" fill="#C1D4EB"/>
<path d="M30.4302 19.9495V16.9911H32.7101V17.4917H31.051V18.1472H32.5943V18.6456H31.051V19.4511H32.7684V19.9495H30.4302V19.9495Z" fill="#C1D4EB"/>
<path d="M33.8169 19.9495V16.9911H34.4377V18.1556H35.6538V16.9911H36.2746V19.9495H35.6538V18.6561H34.4377V19.9495H33.8169Z" fill="#C1D4EB"/>
<path d="M37.439 19.9495V16.9911H38.0598V18.1556H39.2759V16.9911H39.8967V19.9495H39.2759V18.6561H38.0598V19.9495H37.439Z" fill="#C1D4EB"/>
<path d="M42.898 19.9496V18.7143H42.7719C42.5759 18.7143 42.4382 18.7424 42.3581 18.7992C42.2779 18.8552 42.1402 19.0242 41.9457 19.3053L41.4968 19.9489H40.7543L41.1296 19.3719C41.2775 19.1434 41.3963 18.9828 41.4837 18.8903C41.5719 18.7985 41.6819 18.7157 41.8152 18.6428C41.5289 18.6001 41.3219 18.504 41.1944 18.3554C41.0669 18.2068 41.0035 18.0287 41.0035 17.8219C41.0035 17.6417 41.0509 17.4819 41.1449 17.3424C41.2389 17.2029 41.3635 17.1097 41.5179 17.062C41.6724 17.0143 41.9034 16.9905 42.2109 16.9905H43.5173V19.9489H42.898V19.9496ZM42.898 17.4917H42.4134C42.1672 17.4917 42.0054 17.4973 41.9282 17.5078C41.8502 17.5184 41.7839 17.5548 41.7278 17.6165C41.6717 17.6782 41.644 17.7588 41.644 17.8584C41.644 17.9621 41.671 18.0441 41.7249 18.1058C41.7788 18.1668 41.8473 18.2054 41.9304 18.2201C42.0134 18.2348 42.1832 18.2425 42.439 18.2425H42.898V17.4917V17.4917Z" fill="#C1D4EB"/>
<path d="M48.346 18.8623L48.9479 19.0459C48.8554 19.3684 48.7023 19.6089 48.4874 19.7652C48.2724 19.9222 48.0007 20 47.6706 20C47.2625 20 46.9266 19.8661 46.6636 19.5976C46.4006 19.3292 46.2694 18.9625 46.2694 18.497C46.2694 18.0049 46.4013 17.6221 46.6658 17.3501C46.9303 17.0774 47.2778 16.9414 47.7085 16.9414C48.0845 16.9414 48.3898 17.0487 48.6251 17.2625C48.765 17.3887 48.8699 17.5702 48.9399 17.8072L48.3256 17.9481C48.2892 17.7946 48.2134 17.6733 48.0983 17.585C47.9832 17.4959 47.8425 17.4518 47.6779 17.4518C47.4498 17.4518 47.2647 17.5303 47.1234 17.688C46.9813 17.8457 46.9106 18.1002 46.9106 18.4529C46.9106 18.8265 46.9806 19.0929 47.1205 19.252C47.2604 19.4105 47.4418 19.4904 47.6655 19.4904C47.8302 19.4904 47.9722 19.4399 48.091 19.339C48.2091 19.2373 48.2943 19.0789 48.346 18.8623Z" fill="#C1D4EB"/>
<path d="M50.0022 16.9911H51.2314C51.4748 16.9911 51.6562 17.001 51.7757 17.0206C51.8952 17.0402 52.0023 17.0809 52.0963 17.1426C52.1903 17.2043 52.269 17.287 52.3324 17.39C52.3951 17.4931 52.4264 17.6081 52.4264 17.7364C52.4264 17.8752 52.3878 18.0021 52.3098 18.1177C52.2319 18.2334 52.1269 18.3203 51.9943 18.3778C52.1816 18.4304 52.3259 18.5194 52.4264 18.6463C52.527 18.7725 52.5772 18.9211 52.5772 19.0922C52.5772 19.2268 52.5445 19.3579 52.4796 19.4848C52.4148 19.6116 52.3259 19.7133 52.2129 19.7897C52.1007 19.8654 51.9615 19.9124 51.7969 19.9299C51.6934 19.9404 51.4442 19.9474 51.0478 19.9502H50.0015V16.9911H50.0022ZM50.623 17.484V18.1682H51.0296C51.2715 18.1682 51.4216 18.1647 51.4806 18.1584C51.587 18.1465 51.6701 18.1107 51.7313 18.0525C51.7925 17.9943 51.8224 17.9172 51.8224 17.8212C51.8224 17.73 51.7961 17.655 51.7437 17.5983C51.6912 17.5408 51.6132 17.5064 51.5098 17.4945C51.4486 17.4875 51.2715 17.4847 50.9793 17.4847H50.623V17.484ZM50.623 18.6603V19.4511H51.1979C51.4216 19.4511 51.5637 19.4448 51.6235 19.4329C51.716 19.4168 51.791 19.3775 51.8486 19.3151C51.9069 19.2527 51.9353 19.1686 51.9353 19.0641C51.9353 18.9751 51.9127 18.9001 51.8683 18.8384C51.8231 18.7767 51.759 18.7311 51.6745 18.7031C51.5899 18.6751 51.4063 18.661 51.1236 18.661H50.623V18.6603Z" fill="#C1D4EB"/>
<path d="M53.6031 19.9495V16.9911H54.224V19.9495H53.6031Z" fill="#C1D4EB"/>
<path d="M56.0273 19.9495V17.4917H55.1151V16.9911H57.5582V17.4917H56.6481V19.9495H56.0273Z" fill="#C1D4EB"/>
<path d="M58.1659 16.9911H58.8603L59.5773 18.5264L60.1894 16.9911H60.8371L59.7988 19.2394C59.6859 19.4827 59.57 19.6684 59.4527 19.7953C59.3354 19.9222 59.1838 19.986 58.9973 19.986C58.8144 19.986 58.6709 19.9748 58.5674 19.9516V19.5079C58.6556 19.5135 58.735 19.5163 58.8064 19.5163C58.9507 19.5163 59.0534 19.4911 59.1161 19.4406C59.178 19.3901 59.2378 19.2815 59.2953 19.1146L58.1659 16.9911Z" fill="#C1D4EB"/>
</svg>
