<svg width="79" height="14" viewBox="0 0 79 14" fill="none" xmlns="http://www.w3.org/2000/svg">
<path fill-rule="evenodd" clip-rule="evenodd" d="M6.19261 1.65217C6.28107 1.47826 6.36954 1.30435 6.45801 1.04348C6.54647 0.782609 6.7234 0.434783 6.90033 0H12.3852C12.3852 0.26087 12.4737 0.521738 12.4737 0.695651C12.5622 0.956521 12.5621 1.13044 12.6506 1.39131L16.72 13.5652H12.2083C12.2083 13.3913 12.1198 13.2174 12.1198 13.0435C12.1198 12.8696 12.0314 12.6087 11.9429 12.3478L11.2352 9.3913H6.28108L5.13102 12.087C5.04255 12.3478 4.95409 12.6087 4.86562 12.8696C4.77716 13.1304 4.68869 13.3913 4.60022 13.6522H0L6.19261 1.65217ZM9.37738 1.91304L7.5196 6.26087H10.5274L9.37738 1.91304ZM17.1624 13.6522C17.3393 12.2609 17.5162 10.4348 17.6047 8.08695C17.6932 5.73913 17.7816 3.04348 17.8701 0.0869585H22.028C21.9395 0.608698 21.8511 1.30435 21.8511 2C21.7626 2.69565 21.7626 3.47826 21.7626 4.26087L21.3203 13.6522H17.1624ZM21.5857 7.91304C22.2049 8.86957 22.7357 9.91304 23.1781 10.7826C23.7088 11.7391 24.1512 12.6957 24.505 13.5652H29.1053L25.832 7.82609L29.3707 3.13044H25.0358C24.505 4 23.8858 4.78261 23.355 5.56522C22.8242 6.43478 22.2049 7.21739 21.5857 7.91304ZM42.1097 3.21739C41.9328 4.86957 41.8443 6.52174 41.7559 8.26087C41.6674 10 41.6674 11.8261 41.6674 13.6522H37.7749V12.3478C37.2441 12.9565 36.8018 13.3043 36.1825 13.5652C35.6517 13.8261 34.944 13.913 34.1478 13.913C32.7324 13.913 31.7592 13.6522 31.14 13.1304C30.5207 12.6087 30.1669 11.7391 30.1669 10.5217C30.1669 10.087 30.2553 9.04348 30.3438 7.3913C30.4322 5.73913 30.5207 4.34783 30.5207 3.13044H34.5017C34.4132 4.17391 34.3247 5.21739 34.3247 6.08696C34.2363 6.95652 34.2363 7.65217 34.2363 8.17391C34.2363 9.21739 34.3247 9.82608 34.5901 10.2609C34.7671 10.6087 35.2094 10.7826 35.7402 10.7826C36.6249 10.7826 37.2441 10.2609 37.598 9.3913C37.9518 8.43478 38.1288 6.34783 38.1288 3.13044H42.1097V3.21739ZM46.0022 13.6522C45.7368 12.7826 45.383 11.3913 44.7637 9.47826C44.1445 7.65217 43.5252 5.56522 42.729 3.21739H46.7984C46.8869 3.56522 46.9754 3.91304 47.0638 4.43478C47.1523 4.95652 47.3292 5.47826 47.5062 6L48.6562 10.087L50.1601 6C50.2486 5.65217 50.4255 5.21739 50.6025 4.78261C50.7794 4.26087 50.9563 3.73913 51.0448 3.21739H55.0258C53.8757 5.82609 52.991 8.08696 52.2833 9.73913C51.5756 11.4783 51.0448 12.7826 50.7794 13.6522H46.0022ZM61.1299 5.65217C60.5106 5.65217 59.9798 5.91304 59.7144 6.34782C59.3606 6.78261 59.2721 7.56522 59.2721 8.52174C59.2721 9.3913 59.449 10 59.7144 10.4348C59.9798 10.8696 60.4222 11.0435 61.0414 11.0435C61.6607 11.0435 62.1915 10.7826 62.4569 10.3478C62.8108 9.91304 62.8992 9.21739 62.8992 8.34783C62.8992 7.39131 62.7223 6.69565 62.4569 6.26087C62.1915 5.91304 61.7492 5.65217 61.1299 5.65217ZM55.0258 8.6087C55.0258 6.86957 55.5566 5.47826 56.7066 4.43478C57.8567 3.39131 59.3606 2.86956 61.2184 2.86956C63.0761 2.86956 64.4916 3.30435 65.4647 4.26087C66.4378 5.21739 66.9686 6.43478 66.9686 8.17391C66.9686 10 66.4378 11.3913 65.3763 12.4348C64.3147 13.4783 62.8107 14 60.8645 14C59.0067 14 57.5913 13.5652 56.5297 12.6087C55.5565 11.6522 55.0258 10.3478 55.0258 8.6087ZM72.2766 3.21739H67.5879C68.0302 3.91304 68.3841 4.43478 68.561 4.78261C68.8264 5.13043 68.9149 5.3913 69.0034 5.47826L70.5073 8L69.0918 10.2609C68.8264 10.6956 68.561 11.1304 68.2072 11.6522C67.8533 12.1739 67.411 12.8696 66.7917 13.7391H71.4804C71.5689 13.4783 71.7458 13.0435 71.9227 12.6087C72.0997 12.1739 72.1881 11.913 72.2766 11.8261L72.7189 10.6087L73.2497 11.8261C73.3382 12 73.4266 12.2609 73.6036 12.6087C73.692 12.9565 73.869 13.3043 74.0459 13.6522H78.9115C78.4692 12.9565 78.0269 12.3478 77.7615 11.913C77.4076 11.3913 77.1422 10.9565 76.9653 10.6087L75.5498 8.34783L77.0538 6.08696C77.4961 5.47826 77.8499 4.86957 78.1153 4.43478C78.4692 4 78.7346 3.56522 79 3.21739H74.3998C74.3113 3.56522 74.1344 3.91304 74.0459 4.17391C73.9574 4.43478 73.869 4.69565 73.692 4.95652L73.1612 6.08696L72.8074 5.04348C72.7189 4.86956 72.6305 4.60869 72.542 4.34783C72.542 3.91304 72.4535 3.56522 72.2766 3.21739Z" fill="#C1D4EB"/>
</svg>
